HIERARCHY
ROOT Hips
{
	OFFSET -0.001795 -0.223333 0.028219
	CHANNELS 6 Xposition Yposition Zposition Zrotation Yrotation Xrotation 
	JOINT LeftUpLeg
	{
		OFFSET 0.069520 -0.091406 -0.006815
		CHANNELS 3 Zrotation Yrotation Xrotation
		JOINT LeftLeg
		{
			OFFSET 0.034277 -0.375199 -0.004496
			CHANNELS 3 Zrotation Yrotation Xrotation
			JOINT LeftFoot
			{
				OFFSET -0.013596 -0.397961 -0.043693
				CHANNELS 3 Zrotation Yrotation Xrotation
				JOINT LeftToe
				{
					OFFSET 0.026358 -0.055791 0.119288
					CHANNELS 3 Zrotation Yrotation Xrotation
					End Site
					{
						OFFSET 0.000000 0.000000 0.000000
					}
				}
			}
		}
	}
	JOINT RightUpLeg
	{
		OFFSET -0.067670 -0.090522 -0.004320
		CHANNELS 3 Zrotation Yrotation Xrotation
		JOINT RightLeg
		{
			OFFSET -0.038290 -0.382569 -0.008850
			CHANNELS 3 Zrotation Yrotation Xrotation
			JOINT RightFoot
			{
				OFFSET 0.015774 -0.398415 -0.042312
				CHANNELS 3 Zrotation Yrotation Xrotation
				JOINT RightToe
				{
					OFFSET -0.025372 -0.048144 0.123348
					CHANNELS 3 Zrotation Yrotation Xrotation
					End Site
					{
						OFFSET 0.000000 0.000000 0.000000
					}
				}
			}
		}
	}
	JOINT Spine
	{
		OFFSET -0.002533 0.108963 -0.026696
		CHANNELS 3 Zrotation Yrotation Xrotation
		JOINT Spine1
		{
			OFFSET 0.005487 0.135180 0.001092
			CHANNELS 3 Zrotation Yrotation Xrotation
			JOINT Spine2
			{
				OFFSET 0.001457 0.052922 0.025425
				CHANNELS 3 Zrotation Yrotation Xrotation
				JOINT Neck
				{
					OFFSET -0.002778 0.213870 -0.042857
					CHANNELS 3 Zrotation Yrotation Xrotation
					JOINT Head
					{
						OFFSET 0.005152 0.064970 0.051349
						CHANNELS 3 Zrotation Yrotation Xrotation
						End Site
						{
							OFFSET 0.000000 0.000000 0.000000
						}
					}
				}
				JOINT LeftShoulder
				{
					OFFSET 0.078845 0.121749 -0.034090
					CHANNELS 3 Zrotation Yrotation Xrotation
					JOINT LeftArm
					{
						OFFSET 0.090977 0.030469 -0.008868
						CHANNELS 3 Zrotation Yrotation Xrotation
						JOINT LeftForeArm
						{
							OFFSET 0.259612 -0.012772 -0.027456
							CHANNELS 3 Zrotation Yrotation Xrotation
							JOINT LeftHand
							{
								OFFSET 0.249234 0.008986 -0.001171
								CHANNELS 3 Zrotation Yrotation Xrotation
								End Site
								{
									OFFSET 0.000000 0.000000 0.000000
								}
							}
						}
					}
				}
				JOINT RightShoulder
				{
					OFFSET -0.081759 0.118833 -0.038615
					CHANNELS 3 Zrotation Yrotation Xrotation
					JOINT RightArm
					{
						OFFSET -0.096012 0.032551 -0.009143
						CHANNELS 3 Zrotation Yrotation Xrotation
						JOINT RightForeArm
						{
							OFFSET -0.253742 -0.013329 -0.021401
							CHANNELS 3 Zrotation Yrotation Xrotation
							JOINT RightHand
							{
								OFFSET -0.255298 0.007772 -0.005559
								CHANNELS 3 Zrotation Yrotation Xrotation
								End Site
								{
									OFFSET 0.000000 0.000000 0.000000
								}
							}
						}
					}
				}
			}
		}
	}
}
MOTION
Frames: 15
Frame Time: 0.050000
0.000000 0.938271 0.000000 0.251485 -1.467503 0.723893 1.783535 -0.054401 -0.448998 -5.165561 0.658318 5.656797 5.524103 12.427345 5.064052 0.000000 0.000000 0.000000 -4.350822 0.300128 -2.892121 1.429188 0.099818 8.515543 -6.038625 -16.028742 8.752540 0.000000 0.000000 0.000000 0.718197 0.088927 -2.036005 -0.848879 0.407667 -0.043608 -0.720026 -0.296931 9.876537 1.633436 -0.176824 -14.081410 0.000000 0.000000 0.000000 -20.201340 -16.458810 7.703104 -64.784724 -33.308235 11.348350 -158.286214 -69.879781 157.877825 0.000000 0.000000 0.000000 11.536670 18.482403 7.453352 50.295991 40.282085 12.060227 -127.066028 70.259350 -103.470075 0.000000 0.000000 0.000000 
-0.000081 0.937436 0.000492 -0.006579 -0.889244 1.314010 2.090183 -0.063527 -0.470662 -5.083201 0.619391 4.559808 5.306968 11.967579 4.618506 0.000000 0.000000 0.000000 -4.762032 0.272080 -2.350735 2.764270 -0.179401 6.621013 -6.197130 -16.302637 8.764182 0.000000 0.000000 0.000000 0.219974 0.137921 -3.267296 -0.807117 0.379652 0.431040 -0.576956 -1.252821 9.964518 1.676457 -0.243254 -14.561815 0.000000 0.000000 0.000000 -20.221877 -15.823176 7.553861 -63.932262 -33.051176 10.963252 -168.146705 -69.635737 172.277383 0.000000 0.000000 0.000000 11.002721 17.858818 6.991469 50.320741 39.983741 11.887255 -130.527720 68.739188 -106.305250 0.000000 0.000000 0.000000 
0.000063 0.937388 0.000843 0.072179 -1.914649 1.177495 2.110537 -0.055066 -0.414420 -5.519339 0.710985 4.909951 5.728309 12.762243 4.861965 0.000000 0.000000 0.000000 -5.020449 0.338629 -3.350181 2.849330 -0.147246 8.411012 -5.826022 -15.611333 8.460662 0.000000 0.000000 0.000000 0.795495 0.142915 -3.140276 -0.920735 0.443290 -0.180011 -1.271984 -0.015396 9.897403 1.425797 -0.271679 -10.971609 0.000000 0.000000 0.000000 -20.367586 -15.425185 7.090667 -63.060885 -32.961979 10.678324 -168.520431 -68.351166 171.995964 0.000000 0.000000 0.000000 13.058665 17.893418 7.342479 46.304404 38.590020 10.063161 -131.512154 68.061163 -106.393024 0.000000 0.000000 0.000000 
0.000157 0.936527 0.001084 0.281606 -0.987992 0.994655 1.562756 -0.045370 -0.323261 -4.771931 0.578601 5.015182 5.417956 12.124178 4.345360 0.000000 0.000000 0.000000 -5.225047 0.324706 -3.315583 2.984421 -0.177139 9.016926 -6.282843 -16.437012 8.343369 0.000000 0.000000 0.000000 0.430103 0.172951 -3.954281 -1.170803 0.550349 0.930443 -1.243561 -0.955024 9.513247 0.835927 -0.000773 -9.636665 0.000000 0.000000 0.000000 -19.655050 -15.752521 7.324881 -65.374047 -33.177066 11.481924 -172.187490 -68.446647 177.693299 0.000000 0.000000 0.000000 12.592092 17.087487 6.811063 45.968630 38.022012 9.751441 -127.806626 66.338726 -100.413216 0.000000 0.000000 0.000000 
0.000117 0.936363 0.001283 0.318853 -1.102829 0.622595 1.463782 -0.006793 0.128464 -4.686091 0.567463 4.989476 5.462448 12.196532 4.291735 0.000000 0.000000 0.000000 -5.466344 0.294875 -2.816845 3.304122 -0.235926 8.847760 -6.194373 -16.255160 8.211896 0.000000 0.000000 0.000000 0.501047 0.176039 -3.967300 -1.497327 0.712046 0.806976 -1.411522 -1.248345 9.806477 0.597624 0.075358 -8.735386 0.000000 0.000000 0.000000 -19.509256 -15.777052 7.424051 -64.969618 -33.645644 11.658507 -174.177791 -68.556347 -179.133172 0.000000 0.000000 0.000000 12.638021 17.033622 6.721958 44.422778 37.080248 8.898581 -125.018781 66.187826 -97.212061 0.000000 0.000000 0.000000 
-0.000042 0.935923 0.001421 0.195518 -1.073427 0.718690 1.605670 -0.012327 0.087469 -4.678155 0.564670 4.905531 5.482538 12.201802 4.094686 0.000000 0.000000 0.000000 -5.433929 0.309453 -3.078891 3.514566 -0.271351 9.157169 -6.229366 -16.313853 8.125671 0.000000 0.000000 0.000000 0.464849 0.190882 -4.313325 -1.686904 0.803748 0.905557 -1.166658 -1.298925 9.830647 -0.032906 0.499383 -8.344155 0.000000 0.000000 0.000000 -19.184463 -15.711265 7.377144 -65.423331 -34.140621 12.114750 -175.311084 -68.533288 -177.392193 0.000000 0.000000 0.000000 12.582017 17.175574 6.772035 43.249684 35.974318 8.154067 -123.715221 65.910996 -95.472899 0.000000 0.000000 0.000000 
-0.000275 0.935799 0.001392 0.242518 -1.205904 0.569839 1.816300 0.006744 0.355383 -5.131086 0.635854 4.735791 5.486584 12.215156 4.136489 0.000000 0.000000 0.000000 -5.650401 0.306750 -3.031140 3.799232 -0.319722 9.318660 -6.162651 -16.180116 8.030898 0.000000 0.000000 0.000000 0.587060 0.200086 -4.424905 -1.740691 0.830374 1.018154 -1.587674 -1.365959 9.737743 0.412282 0.177864 -8.420678 0.000000 0.000000 0.000000 -19.360403 -15.675082 7.389309 -65.392655 -33.760908 11.862816 -176.382431 -67.797492 -175.754730 0.000000 0.000000 0.000000 13.094442 17.080391 6.745303 42.904502 35.477056 7.890159 -125.367453 66.537655 -98.170138 0.000000 0.000000 0.000000 
-0.000534 0.935624 0.001299 0.307788 -1.478594 0.398578 1.927214 0.021840 0.548684 -5.475690 0.695186 4.753521 5.569558 12.376519 4.186702 0.000000 0.000000 0.000000 -5.895441 0.305274 -2.973511 4.072175 -0.363576 9.458069 -6.037413 -15.932196 7.879109 0.000000 0.000000 0.000000 0.735097 0.213902 -4.599933 -1.920647 0.920187 1.004897 -1.758838 -1.020451 10.055701 0.500977 0.098785 -7.954730 0.000000 0.000000 0.000000 -19.166883 -16.191707 7.602069 -65.225541 -33.556811 11.650366 -177.517952 -67.684581 -174.141051 0.000000 0.000000 0.000000 13.171949 16.978853 6.753209 42.834209 35.506798 7.854937 -129.581444 67.153182 -103.672865 0.000000 0.000000 0.000000 
-0.000781 0.935411 0.001165 0.489119 -1.482364 0.267205 1.856224 0.033757 0.681135 -5.666566 0.725532 4.751186 5.545726 12.334313 4.198076 0.000000 0.000000 0.000000 -6.052941 0.293737 -2.759131 4.022440 -0.355239 9.322755 -6.045194 -15.928442 7.710317 0.000000 0.000000 0.000000 0.656528 0.213647 -4.641814 -1.938129 0.928822 1.252591 -1.989485 -1.056561 9.817235 0.447096 0.118937 -7.634883 0.000000 0.000000 0.000000 -19.173378 -16.492351 7.759853 -64.763709 -33.170135 11.298180 -178.977197 -68.120100 -172.092209 0.000000 0.000000 0.000000 13.155946 17.237341 6.870886 43.108499 35.847301 8.078128 -135.006113 67.249207 -110.436591 0.000000 0.000000 0.000000 
-0.001012 0.935445 0.000987 0.676080 -1.466733 0.094846 1.633773 0.049356 0.825798 -5.600774 0.716307 4.796310 5.523791 12.304761 4.266065 0.000000 0.000000 0.000000 -6.196421 0.277634 -2.453380 3.937274 -0.341630 9.100065 -6.045486 -15.918272 7.624938 0.000000 0.000000 0.000000 0.586062 0.214742 -4.708623 -1.998830 0.959152 1.343837 -2.214723 -0.903161 10.001797 0.610714 -0.015032 -7.249991 0.000000 0.000000 0.000000 -18.988415 -16.867007 7.897040 -63.760452 -32.900975 10.842111 -179.813600 -68.400600 -171.022563 0.000000 0.000000 0.000000 13.210746 17.266263 6.933669 43.440886 36.666390 8.461970 -139.107635 66.242755 -114.415981 0.000000 0.000000 0.000000 
-0.001182 0.935181 0.000749 0.834007 -1.092612 -0.047966 1.584516 0.068025 1.061582 -5.706491 0.722199 4.580398 5.337779 11.945344 4.165441 0.000000 0.000000 0.000000 -6.318792 0.261362 -2.240566 3.939340 -0.349795 9.094637 -6.214213 -16.226451 7.550392 0.000000 0.000000 0.000000 0.326765 0.204889 -4.702692 -1.948772 0.932552 1.491181 -2.209033 -1.244525 9.835311 0.261368 0.205462 -6.828426 0.000000 0.000000 0.000000 -18.891020 -16.877992 7.925579 -62.807905 -33.138391 10.763032 178.513421 -69.193014 -168.695107 0.000000 0.000000 0.000000 13.040462 17.336700 6.920408 44.167350 37.423582 8.969897 -141.120809 64.873992 -115.718725 0.000000 0.000000 0.000000 
-0.001247 0.935172 0.000418 0.987955 -0.740758 -0.300369 1.501749 0.099282 1.438357 -5.758101 0.719694 4.319286 5.142211 11.584997 4.157311 0.000000 0.000000 0.000000 -6.405081 0.233759 -1.811205 3.863659 -0.344691 8.898070 -6.348521 -16.479779 7.557501 0.000000 0.000000 0.000000 0.150938 0.193187 -4.596210 -1.747933 0.830471 1.659072 -2.378036 -1.285348 9.650408 0.241802 0.208770 -6.487126 0.000000 0.000000 0.000000 -19.167890 -16.979660 7.957160 -61.372192 -33.086690 10.371723 178.135746 -69.280349 -168.367502 0.000000 0.000000 0.000000 13.245074 17.295387 6.946887 44.834315 38.320160 9.538780 -139.893175 63.123272 -112.106849 0.000000 0.000000 0.000000 
-0.001177 0.935014 -0.000063 1.086180 -0.331280 -0.422756 1.431909 0.123965 1.743055 -5.735749 0.702304 3.917008 4.941021 11.198592 4.071268 0.000000 0.000000 0.000000 -6.539739 0.215820 -1.560410 3.980404 -0.375251 8.766831 -6.510263 -16.785536 7.574455 0.000000 0.000000 0.000000 -0.015144 0.187679 -4.631109 -1.555941 0.731211 1.790543 -2.381512 -1.184157 9.440987 0.167308 0.259380 -6.090694 0.000000 0.000000 0.000000 -19.100787 -17.245172 7.996117 -60.780972 -33.468424 10.468776 176.364679 -69.818389 -166.216027 0.000000 0.000000 0.000000 13.512111 17.133924 6.955732 45.451461 39.475795 10.218527 -137.095480 61.350970 -106.185896 0.000000 0.000000 0.000000 
-0.001041 0.934847 -0.000736 1.145129 -0.270755 -0.722684 1.293697 0.153409 2.054701 -5.604336 0.682013 3.872710 4.919623 11.142436 3.988747 0.000000 0.000000 0.000000 -6.631411 0.195231 -1.188766 4.012935 -0.383178 8.638773 -6.515854 -16.786695 7.493037 0.000000 0.000000 0.000000 -0.153222 0.177350 -4.498940 -1.444540 0.673416 2.003879 -2.273343 -0.942515 9.238277 0.107392 0.295396 -5.697208 0.000000 0.000000 0.000000 -19.194506 -17.273723 7.938805 -59.874025 -33.801073 10.447976 175.186095 -69.722073 -164.752942 0.000000 0.000000 0.000000 13.503555 17.204841 7.040160 46.571607 40.973564 11.234001 -134.252600 59.436083 -100.038489 0.000000 0.000000 0.000000 
-0.000903 0.934635 -0.001734 1.275859 -0.035804 -0.768608 1.078109 0.168369 2.172895 -5.445249 0.651642 3.612387 4.819686 10.945728 3.922325 0.000000 0.000000 0.000000 -6.811549 0.186772 -1.044476 4.104592 -0.405200 8.436052 -6.609100 -16.961027 7.446466 0.000000 0.000000 0.000000 -0.431215 0.168888 -4.548666 -1.352948 0.624048 2.150425 -2.054550 -0.799816 9.072269 0.108876 0.304652 -5.643587 0.000000 0.000000 0.000000 -19.153118 -17.304171 7.877137 -59.668092 -34.322618 10.718000 173.977439 -69.616771 -163.197245 0.000000 0.000000 0.000000 13.756533 17.280196 7.147428 47.378339 42.379844 12.148980 -131.855979 57.908915 -94.938861 0.000000 0.000000 0.000000 
